Patient4_TMGait_0pt4_03_right_35_EMG.mot
version=1
nRows=33
nColumns=33
inDegrees=no
endheader
time	1LAddLong	2LGlutMax	3LGlutMed	4LIliopsoas	5LSemiMemb	6LBicFemLong	7LRecFem	8LVastMed	9LVastLat	10LGasMed	11LTibAnt	12lTibPost	13LPeroneusLong	14LSol	15LExtDigLong	16LFlexDigLong	17RAddLong	18RGlutMax	19RGlutMed	20RIliopsoas	21RSemiMemb	22RBicFemLong	23RRecFem	24RVastMed	25RVastLat	26RGasMed	27RTibAnt	28RTibPost	29RPeroneusLong	30RSol	31RExtDigLong	32RFlexDigLong
47.06	0.019226	-0.059052	0.063934	-0.00061	0.012512	0.009003	0.023193	0.00412	-0.004272	-0.039215	0.012207	0.001373	0.013428	-0.026093	0.016785	0.035553	-0.019684	-0.16068	0.029907	-0.023956	-0.005493	0.20508	0.013733	-0.07782	0.021973	-0.00061	0.016022	-0.002899	-0.046234	-0.086365	-0.00061	0.009155
47.061	0.002441	-0.058441	0.05188	0.019073	0.01236	0.004578	0.033875	-0.005951	0.011139	-0.039673	0.007324	0.00824	-0.015717	-0.1239	0.003967	0.060577	-0.02121	-0.082245	-0.052795	0.033264	0.034332	0.21698	-0.022125	-0.037994	0.021973	0.005646	-0.031128	-0.002899	-0.012817	-0.086823	0.000305	0.00885
47.062	0.014343	-0.034027	0.027924	0.019073	0.016937	0.003357	0.059052	0.010376	0.014343	-0.019073	0.005951	0.00412	0.037231	-0.10315	0.014954	0.046539	-0.023956	-0.035248	-0.2829	0.05127	-0.013123	0.18936	-0.019226	-0.05188	0.031281	-0.008087	0.018005	-0.004272	-0.14755	-0.038452	0.002289	0.005798
47.063	0.009308	-0.032806	0.006561	0.006104	0.018463	0.025024	0.10056	0.004425	0.016632	0.03418	0.008087	0.004425	-0.00885	0.04776	0.008392	-0.74982	-0.000153	-0.047913	-0.26718	0.085144	-0.008698	0.15076	0.009308	-0.083313	0.016632	-0.007935	0.029907	-0.005646	-0.22446	0.037231	-0.005188	0.002136
47.064	0.005646	-0.004425	-0.008087	-0.009308	0.023651	0.031433	0.11002	0.002899	-0.00412	0.089417	0.008392	0.001526	-0.072632	0.19043	0.005798	-0.091095	0.010834	-0.035553	-0.44479	0.094604	-0.019531	0.12238	-0.018005	-0.095062	0.038452	0.006104	0.008087	-0.00351	-0.12253	0.017242	0.000458	-0.001678
47.065	0.001678	-0.003967	-0.010223	0.007172	0.011292	0.012512	0.13428	0.007629	0.005951	0.15228	0.004425	0.001068	-0.064697	0.23392	-0.000916	0.12253	0.015259	-0.027161	-0.48462	0.001068	0.020294	0.12344	-0.027466	-0.055542	0.03418	0.005493	0.012665	-0.004425	-0.050354	0.013885	-0.005341	0.006561
47.066	0.002899	-0.074768	0.0354	0.019989	0.018311	0.01709	0.13596	0.006409	-0.014496	0.19806	0.008392	0.000763	-0.039673	0.16037	0.003815	0.088348	0.004578	-0.042419	-0.096588	-0.13641	0.07843	0.14999	-0.069733	-0.029144	0.027161	0.005035	0.018463	-0.004272	-0.03418	-0.009918	0.000458	0.005493
47.067	0.003357	-0.048676	0.094604	0.008545	0.020599	0.009766	0.053864	0.017395	-0.042419	0.20355	-0.006409	-0.007172	-0.03418	-0.033722	0.02655	0.19623	-0.050049	-0.042572	0.25986	-0.078735	-0.058594	0.2153	-0.1059	0.032501	0.037842	0.005341	0.023804	-0.005493	-0.009766	-0.015717	0.001221	0.003662
47.068	0.012054	-0.049133	0.06012	0.01236	0.026093	-0.024872	-0.14267	0.009613	-0.008087	0.12405	-0.007477	0.019836	-0.0177	-0.32761	0.04425	0.13611	-0.027618	-0.020142	0.21149	0.051575	-0.062561	0.11856	-0.082245	-0.013275	0.025635	0.006104	0.031738	-0.002899	-0.028687	-0.004272	0.001526	0.004272
47.069	0.016022	-0.031586	0.048981	0.019989	0.018616	-0.000153	-0.14252	0.019531	0.044403	-0.012054	-0.007477	0.072327	0.063934	-0.27634	0.058594	-0.03006	-0.018921	-0.055695	0.088654	0.065002	0.021515	0.092926	-0.024261	-0.050049	0.010071	0.007629	0.0383	-0.008087	0.025482	-0.035095	0.001373	0.00061
47.07	0.000458	-0.024872	0.044861	0.01709	0.019684	0.002594	-0.049133	0.009155	-0.030518	-0.18829	-0.003815	0.035858	0.053253	-0.23697	0.010071	-0.04715	-0.014801	-0.033875	-0.20828	0.032806	0.08194	0.081177	-0.03067	-0.008087	0.016022	0.00885	0.041046	-0.00824	0.082703	-0.024414	0.004425	-0.000458
47.071	0.006409	-0.016174	0.020142	0.017853	0.023346	-0.00351	-0.006561	0.00412	-0.051422	-0.11154	0.002441	-0.051422	0.044556	-0.18356	-0.007935	-0.050507	-0.001678	-0.051422	-0.37231	0.001221	0.055084	0.099335	-0.05249	-0.035858	0.014343	0.009766	0.025787	0.005341	0.067139	-0.030365	0.00412	-0.002899
47.072	0.006256	-0.034637	-0.001831	0.002136	0.014496	0.018158	-0.009918	-0.000305	-0.017395	-0.001526	0.000763	0.013275	0.10071	-0.16113	-0.023804	-0.032806	0.002899	0.019226	0.11963	-0.035858	-0.074463	0.1416	-0.05249	-0.076141	0.011902	0.010529	0.009003	-0.010681	0.1062	-0.037231	0.000763	0.005188
47.073	0.006104	-0.071869	0.048676	0.002289	0.006714	0.008698	-0.016327	0.000763	0.017395	0.014038	0.004272	-0.035706	0.12726	0.10666	-0.0177	-0.025177	0.021057	-0.037079	0.013885	-0.036316	-0.096436	0.12909	-0.011292	-0.087585	0.005646	0.011597	0.01297	-0.00473	0.28717	-0.005493	0.001831	0.000305
47.074	0.002594	-0.045166	0.024567	-0.007629	0.013275	0.024719	0.06958	0.007019	0.020294	0.033112	0.006866	-0.004578	0.079041	0.2652	-0.010223	-0.011444	0.000153	-0.039825	-0.35645	-0.02533	-0.018005	0.10712	0.001221	-0.10086	0.006104	0.011292	0.013275	-0.000763	0.12833	-0.011444	0.00061	-0.000305
47.075	0.005646	-0.058289	-0.036316	0.001984	0.020447	-0.000916	0.075531	0.008698	0.023651	-0.056458	0.018463	0.007935	0.056152	0.12726	-0.015411	-0.022583	-0.00824	-0.053406	-0.23468	-0.045166	0.059204	0.10117	-0.010223	-0.14023	0.006104	0.010376	0.025482	-0.007019	-0.001984	-0.034027	0.006104	0.000305
47.076	0.004578	-0.044708	0.029755	0.000153	0.017242	0.006714	0.12299	0.001373	0.02243	-0.10284	0.032806	-0.003357	0.02655	0.053406	-0.000305	-0.018311	0.00351	-0.040588	0.023804	-0.028229	-0.053406	0.080414	0.003204	-0.12512	0.014954	0.015259	0.019989	-0.001221	-0.1152	-0.042877	0.004272	0.006409
47.077	-0.00061	0.007782	0.075989	-0.006866	0.016937	0.018158	0.1033	0.000153	0.005493	-0.11215	0.032043	-0.00061	0.034943	0.003052	0.003967	-0.010376	0.009613	-0.019684	-0.26428	0.10757	-0.099487	0.072479	-0.001526	-0.077972	0.029297	0.011292	0.042572	-0.001678	-0.27252	-0.006561	0.003357	-0.003662
47.078	0.000763	-0.024567	0.098877	-0.016479	0.016479	0.017242	-0.045166	0.007019	0.021973	-0.077057	0.006104	-0.007477	0.03067	0.000763	0.001831	-0.013123	0.018463	-0.016632	-0.58991	0.12054	-0.094757	0.095673	-0.030212	-0.052338	0.037231	0.01297	0.029144	-0.006866	-0.14786	-0.0354	0.004425	0.001221
47.079	0.007782	-0.0383	0.022736	-0.019531	0.021362	0.008392	-0.16342	0.003662	0.054932	-0.056305	-0.016174	0.001068	0.005188	0.03952	-0.000153	-0.010986	-0.003967	-0.010223	-0.4509	0.068512	-0.04303	0.11902	-0.041199	0.028534	0.048828	0.010681	0.029755	-0.005951	-0.33249	-0.043488	0.00061	0.001526
47.08	0.006714	-0.032196	-0.087585	-0.017548	0.0177	0.016632	-0.14389	0.005951	0.058594	-0.047913	0.002136	-0.00473	0.018005	0.041656	0	-0.006866	-0.003815	0.05188	1.3309	-0.079346	-0.028076	0.13855	-0.034027	-0.03952	0.04364	0.011749	0.014954	0.000305	-0.4248	-0.053406	0	0.002441
47.081	0.011749	-0.004578	-0.079041	-0.007324	0.018616	0.00885	-0.043945	0.003357	0.068359	-0.029755	0.003357	0.00351	0	0.058899	0.015411	-0.007477	0.018463	-0.039063	1.5614	-0.053558	0.0383	0.18341	-0.044098	-0.05661	0.038452	0.004425	0.025787	-0.010071	-0.35904	-0.037231	0.000305	0.003662
47.082	0.003052	-0.013733	0.041962	-0.016479	0.009918	0.010071	0.00473	0.001068	0.090179	-0.029907	-0.002899	-0.003204	0.013428	0.071106	0.020294	-0.010681	-0.015106	-0.16586	0.058289	-0.037384	-0.012054	0.26367	-0.062256	0.024872	0.061646	0.014038	-0.005493	-0.008545	0.30151	-0.065308	0.000458	-0.006409
47.083	0.007172	-0.03067	0.10559	0.000458	0.014954	0.014343	0.062561	0.007782	0.10101	-0.031891	-0.014801	0.007477	0.02594	0.056152	0.028229	-0.019226	-0.05249	-0.11734	-0.26138	0.009003	-0.02655	0.2092	-0.082855	-0.042267	0.034027	0.016174	0.00061	-0.003967	0.60638	-0.054169	0.002594	-0.002594
47.084	0.011292	-0.022583	0.084076	-0.009155	0.013428	0.017242	0.1326	0.010681	0.10269	-0.042114	-0.020905	0.001678	0.033112	0.043335	0.018616	-0.014801	-0.031738	-0.096741	-0.33905	0.03479	-0.20889	0.065765	-0.071564	-0.059662	0.019073	0.010834	0.034027	-0.008087	0.29068	-0.021515	0.001221	-0.004425
47.085	0.010071	-0.033875	0.069122	-0.012207	0.021973	0.015106	0.070801	0.009308	0.070953	-0.023193	-0.013123	0.00412	-0.005035	0.044556	-0.003357	-0.002441	-0.000916	-0.081635	-0.081787	0.039978	-0.33432	0.053406	-0.045013	-0.076294	0.024872	0.016632	0.032349	-0.00824	0.37277	-0.028687	0.003204	0.001984
47.086	0.000153	-0.010223	0.1387	0.005646	0.022278	0.009613	0.060272	0.016479	0.040283	-0.003815	0.001526	0.00412	-0.026703	0.084839	0.001373	0.010834	-0.00946	-0.093689	-0.41275	0.037994	-0.015869	0.059204	-0.043945	-0.017242	0.035553	0.018005	0.005951	-0.006104	0.40085	-0.067444	0.003967	0.000916
47.087	0.008698	-0.001984	0.071564	0.009003	0.021973	0.002899	0.04776	0.022278	0.040283	-0.009155	0.03067	0.000458	-0.014496	0.059357	-0.03479	0.012817	-0.04303	-0.079803	-0.51987	0.055237	0.36911	0.13428	-0.059967	-0.021973	0.037231	0.019226	0.001678	-0.009003	-0.19272	-0.041962	-0.000458	0.005646
47.088	0.007477	-0.024567	-0.002747	0.023193	0.012207	0.023956	0.061188	0.005035	-0.042725	-0.027618	0.013733	0.004272	0.026093	0.032654	0.005035	-0.003357	-0.055542	-0.11612	-0.68375	0.064545	0.15366	0.13748	-0.002289	-0.030975	0.015564	0.016785	0.017853	-0.009155	-0.15656	-0.000916	0.003204	0.009003
47.089	0.002747	0.010223	0.024719	0.009918	0.024567	0.013428	0.063324	0.004578	0.005646	-0.030975	-0.013123	0.011139	0.033875	0.019226	0.007019	-0.000458	-0.031891	-0.053101	-0.62744	0.06073	-0.019379	0.094147	-0.055237	0.044708	0.016785	0.012207	0.018005	-0.010529	0.082245	0.044708	0.001221	0.006409
47.09	0.010529	-0.002289	0.079193	0.009918	0.014954	0.007172	0.024872	-0.001984	0.035706	-0.042877	-0.005341	0.00061	-0.015717	0.029602	0.01297	-0.007477	-0.017242	-0.006256	-0.029907	-0.068359	0.02655	0.063934	-0.021057	-0.019836	0.011444	0.013885	0.005035	-0.007935	0.14893	0.047607	0.002899	0.007477
47.091	-0.004578	-0.041351	0.085449	0.006104	0.009003	0.011749	0.040436	0.011444	0.057526	-0.061798	-0.000916	-0.002289	-0.014801	0.06012	0.022736	0	-0.016022	-0.038452	0.045929	-0.18677	0.20737	0.070496	-0.020752	-0.065002	0.006714	0.012665	0.00946	-0.006561	0.30609	-0.014801	0.000763	0.009613
47.092	0.01236	-0.013885	0.10757	-0.001068	0.017395	0.018921	0.030212	0.005188	0.045776	-0.034637	-0.001678	0.00351	-0.014343	0.10757	0.023499	-0.006409	0.015106	-0.038452	-0.26627	-0.327	0.17319	0.003357	-0.020599	-0.086517	0.016174	0.013123	-0.002289	-0.005951	0.47623	-0.020599	0.004883	0.008698
